<svg xmlns="http://www.w3.org/2000/svg" viewBox="0 0 97 85">

<path style="fill: none; stroke-width: 5px; stroke-linecap: round; stroke: rgb(110, 14, 34);" d="M 28.588 74.556 C 24.918 88.252 3.832 83.147 7.677 68.796 M 28.999 8.997 L 7.591 68.979 M 28.536 74.697 L 40.53 12.402 M 28.924 9.153 C 30.795 2.17 42.355 5.465 40.506 12.365 M 72.947 74.52 C 76.617 88.216 97.703 83.11 93.858 68.76 M 72.536 8.96 L 93.944 68.943 M 72.999 74.66 L 61.005 12.366 M 72.611 9.116 C 70.74 2.134 59.18 5.429 61.029 12.329 M 47.28 78.579 C 47.28 83.39 54.728 83.504 54.728 78.459 M 60.797 14.582 C 60.797 0.155 40.747 -0.38 40.747 14.736 M 47.309 78.739 L 40.714 14.534 M 60.784 14.43 L 54.683 78.81"></path>
<path style="fill: rgb(255, 254, 205);" d="M 6.363 56.252 C 6.363 48.869 7.307 37.571 11.082 31.909 C 12.63 29.587 12.211 24.931 13.567 22.221 C 15.582 18.19 14.097 11.986 16.547 8.31 C 17.973 6.171 19.792 6.563 21.764 5.577 C 28.629 2.145 34.427 8.791 36.42 14.768 C 37.234 17.211 35.372 19.348 34.433 21.227 C 33.129 23.835 32.556 27.851 31.7 30.418 C 29.226 37.842 26.731 45.325 23.254 52.278 C 21.452 55.883 22.178 61.137 20.274 64.947 C 18.887 67.72 17.5 70.992 16.051 73.889 C 14.085 77.821 7.861 85.323 2.637 80.1 C -0.117 77.346 5.647 73.67 2.885 70.908 C 2.429 70.452 5.151 63.397 5.369 62.959 C 6.776 60.145 6.363 61.623 6.363 57.246" transform="matrix(-1, 0, 0, -1, 38.491125, 86.525673)"></path>
<path d="M 40.378 53.84 C 41.481 46.118 36.667 38.183 38.736 29.909 C 40.027 24.744 37.563 18.428 37.563 12.781 C 37.563 11.47 37.008 8.728 37.563 7.62 C 37.871 7.004 38.74 4.335 39.205 4.335 C 43.082 4.335 48.79 -0.392 52.579 3.396 C 54.709 5.527 56.332 13.243 56.332 17.474 C 56.332 23.053 56.145 30.283 53.752 35.07 C 52.727 37.12 53.542 40.39 52.813 42.578 C 51.008 47.993 53.139 54.74 51.405 59.94 C 50.585 62.4 51.877 65.812 52.579 67.917 C 52.916 68.929 51.275 76.625 50.702 77.771 C 50.066 79.042 45.141 83.074 43.663 80.117 C 40.561 73.914 40.613 62.147 40.613 55.013" style="fill: rgb(255, 254, 205);"></path>
<path style="fill: none; stroke-width: 5px; stroke: rgb(155, 37, 61); stroke-linecap: round;" d="M 49.79 6.343 C 49.79 1.532 42.342 1.418 42.342 6.463 M 36.273 70.34 C 36.273 84.767 56.323 85.302 56.323 70.186 M 49.761 6.183 L 56.356 70.388 M 36.286 70.492 L 42.387 6.112" transform="matrix(-1, 0, 0, -1, 92.628998, 84.049085)"></path>
<path style="fill: rgb(255, 254, 205);" d="M 60.141 30.101 C 60.141 37.484 61.085 48.782 64.86 54.444 C 66.408 56.766 65.989 61.422 67.345 64.132 C 69.36 68.163 67.875 74.367 70.325 78.043 C 71.751 80.182 73.57 79.79 75.542 80.776 C 82.407 84.208 88.205 77.562 90.198 71.585 C 91.012 69.142 89.15 67.005 88.211 65.126 C 86.907 62.518 86.334 58.502 85.478 55.935 C 83.004 48.511 80.509 41.028 77.032 34.075 C 75.23 30.47 75.956 25.216 74.052 21.406 C 72.665 18.633 71.278 15.361 69.829 12.464 C 67.863 8.532 61.639 1.03 56.415 6.253 C 53.661 9.007 59.425 12.683 56.663 15.445 C 56.207 15.901 58.929 22.956 59.147 23.394 C 60.554 26.208 60.141 24.73 60.141 29.107"></path>
<path style="fill: none; stroke-width: 5px; stroke: rgb(155, 37, 61); stroke-linecap: round;" d="M 60.658 71.82 C 60.658 85.999 82.347 86.525 82.347 71.668 M 77.229 8.388 L 82.383 71.867 M 60.672 71.969 L 65.209 8.693 M 77.261 8.558 C 77.261 1.329 65.242 1.52 65.242 8.663" transform="matrix(0.965926, -0.258819, 0.258819, 0.965926, -8.67324, 19.973551)"></path>
<path style="fill: none; stroke-width: 5px; stroke: rgb(155, 37, 61); stroke-linecap: round;" d="M 10.27 14.069 C 10.27 -0.11 31.959 -0.636 31.959 14.221 M 26.841 77.501 L 31.995 14.022 M 10.284 13.92 L 14.821 77.196 M 26.873 77.331 C 26.873 84.56 14.854 84.369 14.854 77.226" transform="matrix(-0.965926, -0.258819, 0.258819, -0.965926, 30.42547, 89.930207)"></path>

</svg>
